<?xml version="1.0" encoding="UTF-8"?>
<svg version="1.1" xmlns="http://www.w3.org/2000/svg" width="512" height="512">
<path d="M0 0 C11.38322858 9.30303269 21.47713256 20.35864057 31.83001709 30.76135254 C34.22202924 33.16374909 36.61701386 35.56317872 39.01171875 37.96289062 C43.67716289 42.63925743 48.33972838 47.31847874 53 52 C56.35992351 50.91966449 59.59146478 49.82424513 62.7421875 48.23046875 C72.28808358 43.50723892 81.67897619 39.65817234 92 37 C93.19496094 36.6803125 94.38992187 36.360625 95.62109375 36.03125 C116.63159378 31.38614457 141.38416336 32.07288609 162 38 C162.66016113 38.18191895 163.32032227 38.36383789 164.00048828 38.55126953 C191.80393673 46.37820257 212.49915022 63.12437722 232.5637207 83.19311523 C234.94647436 85.57145774 237.34484245 87.93328469 239.74414062 90.29492188 C241.27701849 91.82193672 242.80895343 93.34989883 244.33984375 94.87890625 C245.05027328 95.57496475 245.76070282 96.27102325 246.49266052 96.98817444 C253.7618132 104.32459687 257.09440004 111.27099125 257.3125 121.625 C257.21213393 131.30028911 254.58620883 138.20818578 247.91796875 145.24609375 C240.7921894 151.76233596 232.97470363 154.52755157 223.35546875 154.24609375 C211.69609379 153.0279501 204.19309994 146.57333403 196.33203125 138.38671875 C195.09599034 137.12536953 193.85965264 135.86431108 192.62304688 134.60351562 C190.72164495 132.65282803 188.82366001 130.69905687 186.93139648 128.73950195 C169.48351791 110.71329098 151.01773483 98.32435825 124.9375 97.625 C117.71766482 97.77352232 110.98528539 99.21652288 104 101 C103.77554364 103.20713437 103.77554364 103.20713437 105.83251953 105.01196289 C106.67411621 105.8239917 107.51571289 106.63602051 108.3828125 107.47265625 C109.30320313 108.37306641 110.22359375 109.27347656 111.171875 110.20117188 C112.63694843 111.62319783 114.10438326 113.04265031 115.57519531 114.45874023 C125.26821968 123.81644014 132.80498972 131.84724809 133.375 145.8125 C133.12837236 157.43301408 127.7192313 164.43534252 119.6875 172.25 C111.87019181 177.34034022 104.2934949 179.19399868 95 178 C82.89461893 175.00467145 74.3827965 165.67814383 65.9375 157.0625 C65.07189453 156.18787109 64.20628906 155.31324219 63.31445312 154.41210938 C61.20493925 152.27928595 59.10028127 150.14190904 57 148 C50.73329954 165.73594469 51.79852801 183.92619612 59.5625 201.1640625 C67.24183532 216.31405556 79.41502074 227.57435987 91.43603516 239.26464844 C100.62376789 248.21432929 108.80841448 256.26469105 109.3125 269.875 C109.08355146 278.7770578 105.68510161 286.20092578 100 293 C92.45924824 300.03496963 84.25512584 302.97103072 74 303 C62.81822965 302.15954014 54.99289478 294.459549 47.4140625 286.8828125 C46.63163177 286.1079953 45.84920105 285.3331781 45.0430603 284.53488159 C43.39726408 282.89983055 41.75535749 281.26085582 40.1171875 279.61816406 C37.65236078 277.1523715 35.16706629 274.70863913 32.6796875 272.265625 C4.36613794 244.16638371 -11.59751279 209.73536752 -12.02734375 169.56152344 C-11.78029756 146.41858961 -6.11609824 123.57003273 5.77734375 103.671875 C7.1682714 101.2037959 7.1682714 101.2037959 6.85394287 99.12884521 C5.6626533 96.15900826 3.84145483 94.50557386 1.55957031 92.26660156 C1.09928436 91.81069641 0.63899841 91.35479126 0.1647644 90.8850708 C-0.83428496 89.89742217 -1.83678466 88.91325423 -2.84230804 87.93219757 C-4.43875632 86.37414974 -6.02554784 84.8068254 -7.61016846 83.23675537 C-11.55086993 79.33611228 -15.50750905 75.45176485 -19.46398926 71.56713867 C-22.80288555 68.28773326 -26.13537396 65.00205946 -29.45981598 61.70800018 C-31.01405878 60.17303421 -32.5771411 58.64748669 -34.14080811 57.12213135 C-42.72923108 48.66740832 -49.23289326 40.81223546 -49.375 28.25 C-49.18309781 18.11116759 -46.18033382 11.32829646 -39.22265625 3.98046875 C-28.49312597 -5.57993872 -12.45499789 -7.50202372 0 0 Z " fill="#FFFFFF" transform="translate(49,4)"/>
<path d="M0 0 C7.60194853 4.82432126 13.80458477 11.82409415 20.07495117 18.20507812 C22.56883215 20.73836416 25.09041183 23.24126815 27.61694336 25.74194336 C40.14031801 38.26894574 51.61641745 51.4749229 58.96850586 67.76342773 C59.57082031 69.06364868 59.57082031 69.06364868 60.18530273 70.39013672 C75.74999408 105.05666444 76.36928391 144.23091786 63.03393555 179.68725586 C60.78576033 185.36595888 57.8919684 190.56928507 54.71850586 195.77905273 C53.30522819 198.30120401 53.30522819 198.30120401 54.2510376 200.33454895 C55.88574762 202.91164199 57.77014101 204.84397732 59.94799805 206.98486328 C60.84943542 207.87646652 61.7508728 208.76806976 62.67962646 209.68669128 C63.16174339 210.15894827 63.64386032 210.63120525 64.14058685 211.11777306 C65.65977404 212.60665277 67.17206361 214.10223395 68.68267822 215.59980774 C72.97811006 219.8556281 77.28598432 224.09877042 81.59741211 228.33837891 C84.23866301 230.93656577 86.87228347 233.54230191 89.50174713 236.15241432 C90.49861836 237.13881286 91.49838643 238.1222937 92.50124359 239.10260582 C100.69287274 247.11050601 108.80380623 255.10398631 109.92944336 267.00170898 C110.00996713 274.75614785 109.78923066 280.8185553 105.59350586 287.45092773 C105.15780273 288.15862305 104.72209961 288.86631836 104.27319336 289.59545898 C99.57934451 296.50798502 93.59698468 300.22557021 85.59350586 302.45092773 C75.56311997 303.40938683 66.31545951 303.13939552 58.24560547 296.52709961 C48.1337947 287.20440699 38.46395741 277.43673125 28.76348877 267.6895752 C26.37147662 265.28717864 23.976492 262.88774901 21.58178711 260.48803711 C16.91634297 255.8116703 12.25377748 251.13244899 7.59350586 246.45092773 C4.0143251 247.84861466 0.60812144 249.43776529 -2.82373047 251.16723633 C-35.84568307 267.55628185 -74.49895227 269.55789304 -109.41821289 258.17358398 C-135.44048834 249.21540851 -154.47858769 232.55890841 -173.70361328 213.44897461 C-175.05172252 212.11246025 -176.40430601 210.78044449 -177.76123047 209.45288086 C-179.75324875 207.50374548 -181.7314814 205.54149225 -183.70727539 203.57592773 C-184.3063118 202.99439941 -184.90534821 202.41287109 -185.52253723 201.8137207 C-192.56817266 194.73179365 -196.48937574 187.35662618 -196.71899414 177.32592773 C-196.57907237 166.89009546 -193.10050088 160.13010247 -185.88305664 152.65405273 C-178.39042128 145.98867996 -170.33887903 144.0477682 -160.40649414 144.45092773 C-149.78038103 146.02461162 -142.64289744 152.88023468 -135.41430664 160.35327148 C-134.11885455 161.66914565 -132.82327776 162.98489707 -131.52758789 164.30053711 C-129.52866906 166.34280422 -127.53235814 168.38754034 -125.53881836 170.43505859 C-108.54021829 187.85914767 -91.09237306 200.05224328 -65.90649414 200.70092773 C-58.12273073 200.66744918 -50.95624628 199.22734 -43.40649414 197.45092773 C-43.1810677 195.24485815 -43.1810677 195.24485815 -45.23901367 193.45483398 C-46.08061035 192.64916992 -46.92220703 191.84350586 -47.78930664 191.01342773 C-48.70969727 190.1175293 -49.63008789 189.22163086 -50.57836914 188.29858398 C-52.5173763 186.42459665 -54.46439397 184.55974294 -56.41430664 182.69702148 C-64.96426211 174.34893996 -72.22324849 165.61461278 -72.78149414 153.26342773 C-72.52178713 143.17586064 -68.86709861 135.84344049 -61.91821289 128.61889648 C-54.64375988 122.34001403 -46.77959045 120.05201688 -37.34399414 120.17749023 C-23.86917065 121.43179561 -14.3791823 132.18512294 -5.46899414 141.32592773 C-3.7954148 143.03381736 -2.11974187 144.73965881 -0.44165039 146.44311523 C0.28658936 147.18932129 1.0148291 147.93552734 1.76513672 148.7043457 C3.48605578 150.51988891 3.48605578 150.51988891 5.59350586 151.45092773 C5.81006836 149.62561523 5.81006836 149.62561523 6.03100586 147.76342773 C6.29321826 145.55335174 6.59816941 143.43114298 7.10913086 141.26342773 C10.38747372 122.22788853 6.21502742 102.14491718 -4.89233398 86.33618164 C-9.03064733 80.89799191 -13.65982283 76.09569186 -18.53930664 71.33374023 C-19.18387817 70.70468781 -19.82844971 70.07563538 -20.49255371 69.42752075 C-23.17742394 66.81629612 -25.86686014 64.21040161 -28.57592773 61.62426758 C-38.71213782 51.92208333 -47.93440815 42.88774013 -48.51196289 27.97827148 C-48.35481337 24.21250341 -47.73596675 20.97439339 -46.40649414 17.45092773 C-46.1602832 16.79479492 -45.91407227 16.13866211 -45.66040039 15.46264648 C-41.90724798 6.87209764 -35.15851534 0.8105603 -26.52368164 -2.69360352 C-16.93965161 -5.32380724 -8.70379354 -4.60276481 0 0 Z " fill="#FFFFFF" transform="translate(402.406494140625,209.549072265625)"/>
<path d="M0 0 C2.4375 1.5625 2.4375 1.5625 4 4 C4.6875 7.25 4.6875 7.25 4 11 C2.66926575 12.84388733 2.66926575 12.84388733 0.93286133 14.75024414 C0.29700104 15.44981232 -0.33885925 16.14938049 -0.99398804 16.87014771 C-4.14680392 20.21760139 -7.35675469 23.4995921 -10.61328125 26.74609375 C-11.30890671 27.44267593 -12.00453217 28.13925812 -12.72123718 28.85694885 C-14.17629346 30.31267999 -15.63259063 31.7671718 -17.09008789 33.22045898 C-19.32750895 35.45247268 -21.55947677 37.68984135 -23.79101562 39.92773438 C-25.21061654 41.34667534 -26.63052717 42.76530654 -28.05078125 44.18359375 C-29.05229973 45.18814857 -29.05229973 45.18814857 -30.0740509 46.21299744 C-30.69197006 46.82776443 -31.30988922 47.44253143 -31.9465332 48.07592773 C-32.76091606 48.8891172 -32.76091606 48.8891172 -33.5917511 49.71873474 C-35.92220653 51.83904996 -37.14710681 52.013621 -40.375 52.3125 C-44 52 -44 52 -46.4375 50.5 C-48.18616699 47.70213281 -48.65412277 45.5634812 -48.57415771 42.26779175 C-47.32763384 37.34430732 -43.09877808 34.12198672 -39.5390625 30.72265625 C-38.6781601 29.87070175 -37.81725769 29.01874725 -36.93026733 28.14097595 C-34.18005423 25.42885345 -31.40303273 22.74608923 -28.625 20.0625 C-26.76125321 18.23031196 -24.89925206 16.39634641 -23.0390625 14.56054688 C-19.63865031 11.21861924 -16.23447854 7.88096651 -12.80712891 4.56665039 C-12.11873932 3.90016983 -11.43034973 3.23368927 -10.72109985 2.54701233 C-7.31130879 -0.51788179 -4.49419085 -0.38743025 0 0 Z " fill="#FFFFFF" transform="translate(137,376)"/>
<path d="M0 0 C2.4375 1.5625 2.4375 1.5625 4 4 C4.6875 7.25 4.6875 7.25 4 11 C2.66926575 12.84388733 2.66926575 12.84388733 0.93286133 14.75024414 C0.29700104 15.44981232 -0.33885925 16.14938049 -0.99398804 16.87014771 C-4.14680392 20.21760139 -7.35675469 23.4995921 -10.61328125 26.74609375 C-11.30890671 27.44267593 -12.00453217 28.13925812 -12.72123718 28.85694885 C-14.17629346 30.31267999 -15.63259063 31.7671718 -17.09008789 33.22045898 C-19.32750895 35.45247268 -21.55947677 37.68984135 -23.79101562 39.92773438 C-25.21061654 41.34667534 -26.63052717 42.76530654 -28.05078125 44.18359375 C-29.05229973 45.18814857 -29.05229973 45.18814857 -30.0740509 46.21299744 C-30.69197006 46.82776443 -31.30988922 47.44253143 -31.9465332 48.07592773 C-32.76091606 48.8891172 -32.76091606 48.8891172 -33.5917511 49.71873474 C-35.92220653 51.83904996 -37.14710681 52.013621 -40.375 52.3125 C-44 52 -44 52 -46.4375 50.4375 C-48.70159958 46.90550465 -48.7587407 45.13858566 -48 41 C-46.66926575 39.15611267 -46.66926575 39.15611267 -44.93286133 37.24975586 C-43.97907089 36.20040359 -43.97907089 36.20040359 -43.00601196 35.12985229 C-39.85319608 31.78239861 -36.64324531 28.5004079 -33.38671875 25.25390625 C-32.34328056 24.20903297 -32.34328056 24.20903297 -31.27876282 23.14305115 C-29.82370654 21.68732001 -28.36740937 20.2328282 -26.90991211 18.77954102 C-24.67249105 16.54752732 -22.44052323 14.31015865 -20.20898438 12.07226562 C-18.78938346 10.65332466 -17.36947283 9.23469346 -15.94921875 7.81640625 C-15.28153976 7.14670303 -14.61386078 6.47699982 -13.9259491 5.78700256 C-13.30802994 5.17223557 -12.69011078 4.55746857 -12.0534668 3.92407227 C-11.51054489 3.38194595 -10.96762299 2.83981964 -10.4082489 2.28126526 C-7.20125196 -0.63655258 -4.18752452 -0.36099349 0 0 Z " fill="#FFFFFF" transform="translate(424,89)"/>
<path d="M0 0 C2.16479492 2.08813477 2.16479492 2.08813477 4 5 C4.05639648 8.3137207 4.05639648 8.3137207 3.43359375 12.11328125 C3.32695908 12.80569412 3.2203244 13.49810699 3.11045837 14.21150208 C2.8787835 15.70245286 2.63709163 17.19187489 2.38641357 18.67974854 C1.99787619 21.0127526 1.6463198 23.348592 1.30517578 25.68896484 C0.71586328 29.71098794 0.09151213 33.72640213 -0.54956055 37.74047852 C-0.81118971 39.39076742 -1.06791892 41.04183963 -1.32006836 42.69360352 C-1.69122729 45.12432597 -2.07639031 47.55245755 -2.46484375 49.98046875 C-2.62907082 51.08046455 -2.62907082 51.08046455 -2.7966156 52.2026825 C-3.48692992 56.39380871 -4.45747582 59.57248418 -7 63 C-10.09173752 64.54586876 -12.59429552 64.29359521 -16 64 C-18.4375 62.5 -18.4375 62.5 -20 60 C-20.37766592 53.52598708 -19.42314929 47.44631129 -18.3203125 41.078125 C-18.14748749 40.05571716 -17.97466248 39.03330933 -17.79660034 37.97991943 C-17.43161017 35.83127403 -17.06331777 33.68318723 -16.69189453 31.53564453 C-16.1246557 28.24800449 -15.57142155 24.95821609 -15.01953125 21.66796875 C-14.66229336 19.57537811 -14.30424843 17.48292505 -13.9453125 15.390625 C-13.78064484 14.40829895 -13.61597717 13.4259729 -13.44631958 12.41387939 C-13.28630463 11.49902771 -13.12628967 10.58417603 -12.96142578 9.64160156 C-12.82374786 8.8396637 -12.68606995 8.03772583 -12.54421997 7.21148682 C-11.9725247 4.88835164 -11.23145139 3.049584 -10 1 C-6.86599115 -0.56700442 -3.36844905 -0.85164561 0 0 Z " fill="#FFFFFF" transform="translate(355,36)"/>
<path d="M0 0 C2.25389302 3.75648836 1.98380069 6.14579381 1.5 10.5 C-0.24746834 13.16430857 -1.56157394 13.51635787 -4.67602539 14.34375 C-5.97016357 14.5603125 -7.26430176 14.776875 -8.59765625 15 C-9.30012985 15.12104599 -10.00260345 15.24209198 -10.72636414 15.36680603 C-13.00326976 15.75626414 -15.28259122 16.12856392 -17.5625 16.5 C-19.11962475 16.76150855 -20.67659135 17.0239605 -22.23339844 17.28735352 C-25.28306905 17.80179848 -28.33371128 18.30977393 -31.38525391 18.81298828 C-34.77698257 19.37486783 -38.16117487 19.97059178 -41.54296875 20.58984375 C-42.77358032 20.81124023 -42.77358032 20.81124023 -44.02905273 21.03710938 C-46.07711633 21.40633267 -48.1245272 21.77917179 -50.171875 22.15234375 C-54.22570705 22.57580743 -57.77603663 22.47691257 -61.375 20.4375 C-63.16463689 17.35534758 -63.21245619 13.96449284 -62.5 10.5 C-56.90239764 3.2417872 -39.31295306 3.15781348 -30.57788086 1.71020508 C-28.17229476 1.30997019 -25.76881208 0.89843276 -23.36523438 0.48632812 C-21.81001019 0.22587871 -20.25467527 -0.03391053 -18.69921875 -0.29296875 C-17.99383469 -0.41480026 -17.28845062 -0.53663177 -16.56169128 -0.66215515 C-4.40350679 -2.64210407 -4.40350679 -2.64210407 0 0 Z " fill="#FFFFFF" transform="translate(98.5,336.5)"/>
<path d="M0 0 C3.06114507 0.61904418 4.16617645 2.023363 6.10546875 4.42578125 C6.39379883 6.90429688 6.39379883 6.90429688 6.0625 9.83203125 C5.93439941 10.98445313 5.80629883 12.136875 5.67431641 13.32421875 C5.48917148 14.69201888 5.29917887 16.05916783 5.10546875 17.42578125 C4.99636169 18.21049805 4.88725464 18.99521484 4.77484131 19.80371094 C4.00470464 25.23953884 3.15261886 30.65936527 2.2590332 36.07617188 C1.78970956 38.94570856 1.34303475 41.8182489 0.89648438 44.69140625 C0.59643355 46.53017388 0.29504938 48.36872454 -0.0078125 50.20703125 C-0.20181389 51.48519714 -0.20181389 51.48519714 -0.3997345 52.78918457 C-1.2352903 57.67311003 -2.22867593 60.83617715 -5.89453125 64.42578125 C-8.6704885 65.3474858 -11.0683174 65.11355108 -13.89453125 64.42578125 C-16.45703125 62.61328125 -16.45703125 62.61328125 -17.89453125 59.42578125 C-18.09401199 49.68991199 -15.58030751 39.5066354 -13.99316406 29.92626953 C-13.51748934 27.03838453 -13.05746687 24.1482603 -12.59765625 21.2578125 C-12.2939255 19.40999873 -11.98927077 17.56233655 -11.68359375 15.71484375 C-11.54909821 14.85645905 -11.41460266 13.99807434 -11.27603149 13.11367798 C-9.92264595 5.14343068 -8.59997638 0.46791616 0 0 Z " fill="#FFFFFF" transform="translate(175.89453125,416.57421875)"/>
<path d="M0 0 C1.40190212 2.55640974 1.52311897 5.0233852 1.65625 7.90234375 C0.69160231 11.20880063 -1.04741739 12.08724381 -3.9375 13.9375 C-7.46817406 14.96888117 -11.04807106 15.51881965 -14.6796875 16.078125 C-16.24228806 16.33598785 -16.24228806 16.33598785 -17.8364563 16.59906006 C-20.03579455 16.95902025 -22.23635481 17.31158202 -24.43798828 17.65722656 C-27.79613787 18.18492884 -31.15002842 18.73492216 -34.50390625 19.2890625 C-36.64562035 19.63673126 -38.78754145 19.98312768 -40.9296875 20.328125 C-41.92781464 20.49056702 -42.92594177 20.65300903 -43.95431519 20.82037354 C-57.3567089 22.91029452 -57.3567089 22.91029452 -61.375 20.4375 C-63.71807502 16.68857996 -63.42523804 14.32714238 -62.9375 9.9375 C-59.94050348 6.01839441 -55.73012923 5.84441347 -51.125 5.0625 C-49.77414307 4.82140503 -49.77414307 4.82140503 -48.39599609 4.57543945 C-46.37847007 4.21874139 -44.35983227 3.86829478 -42.34033203 3.52294922 C-39.26996243 2.99469938 -36.2032269 2.44869197 -33.13710022 1.89642334 C-30.44695186 1.41435045 -27.75496274 0.94322221 -25.06240845 0.47479248 C-23.09292969 0.13032228 -21.12493799 -0.22261536 -19.15698242 -0.57568359 C-17.93213135 -0.78402832 -16.70728027 -0.99237305 -15.4453125 -1.20703125 C-14.35879395 -1.39628174 -13.27227539 -1.58553223 -12.15283203 -1.78051758 C-7.93243218 -2.15064376 -3.77795412 -2.07178129 0 0 Z " fill="#FFFFFF" transform="translate(479.9375,160.0625)"/>
</svg>
