<?xml version="1.0" encoding="UTF-8"?>
<svg xmlns="http://www.w3.org/2000/svg" xmlns:xlink="http://www.w3.org/1999/xlink" width="500px" height="500px" viewBox="0 0 500 562" version="1.1">
<g id="surface1">
<path style=" stroke:none;fill-rule:nonzero;fill:rgb(66.274512%,72.549021%,79.607844%);fill-opacity:1;" d="M 499.976562 167.191406 C 499.96875 157.742188 497.949219 149.390625 493.863281 142.226562 C 489.851562 135.179688 483.835938 129.273438 475.773438 124.605469 C 409.210938 86.222656 342.582031 47.960938 276.039062 9.542969 C 258.101562 -0.8125 240.707031 -0.4375 222.898438 10.070312 C 196.40625 25.695312 63.757812 101.6875 24.230469 124.582031 C 7.953125 134.007812 0.03125 148.429688 0.0273438 167.171875 C 0 244.359375 0.0273438 321.539062 0 398.726562 C 0.00390625 407.96875 1.9375 416.15625 5.84375 423.214844 C 9.859375 430.472656 15.957031 436.542969 24.207031 441.316406 C 63.738281 464.210938 196.402344 540.199219 222.890625 555.828125 C 240.703125 566.339844 258.101562 566.714844 276.046875 556.355469 C 342.585938 517.933594 409.222656 479.675781 475.796875 441.292969 C 484.046875 436.519531 490.140625 430.449219 494.15625 423.195312 C 498.054688 416.136719 499.996094 407.949219 500 398.707031 C 500 398.707031 500 244.378906 499.976562 167.191406 "/>
<path style=" stroke:none;fill-rule:nonzero;fill:rgb(49.803922%,54.509807%,60.000002%);fill-opacity:1;" d="M 275.585938 10.046875 C 257.679688 -0.285156 240.3125 0.09375 222.535156 10.570312 C 196.085938 26.15625 63.652344 101.953125 24.191406 124.789062 C 7.9375 134.1875 0.03125 148.570312 0.0273438 167.265625 C 0 244.25 0.0273438 321.234375 0 398.21875 C 0.00390625 407.4375 1.9375 415.601562 5.835938 422.644531 C 9.84375 429.882812 15.929688 435.9375 24.167969 440.699219 C 37.28125 448.273438 50.40625 455.832031 63.539062 463.371094 L 428.953125 98.320312 C 377.828125 68.90625 326.683594 39.519531 275.585938 10.046875 "/>
<path style=" stroke:none;fill-rule:nonzero;fill:rgb(100%,100%,100%);fill-opacity:1;" d="M 301.671875 247.765625 L 379.484375 248.316406 C 379.484375 215.925781 346.667969 136.613281 252.582031 136.613281 C 192.640625 136.613281 112.050781 174.683594 112.050781 284.140625 C 112.050781 393.597656 191.050781 429.289062 252.582031 429.289062 C 352.226562 429.289062 376.039062 360.410156 376.039062 321.484375 L 301.804688 317.242188 C 301.804688 317.242188 303.792969 362.265625 252.1875 362.265625 C 204.546875 362.265625 196.601562 303.96875 196.601562 284.140625 C 196.601562 254 207.328125 205.617188 252.1875 205.617188 C 297.046875 205.617188 301.671875 247.765625 301.671875 247.765625 "/>
</g>
</svg>
