<?xml version="1.0" encoding="UTF-8"?>
<svg version="1.1" xmlns="http://www.w3.org/2000/svg" width="500" height="500">
<path d="M0 0 C0.66 0 1.32 0 2 0 C3.25658227 1.85130495 4.41334211 3.77049184 5.52734375 5.7109375 C6.04432327 6.60325325 6.04432327 6.60325325 6.57174683 7.51359558 C7.31337948 8.79530838 8.05167847 10.07895462 8.78701782 11.36428833 C10.71077572 14.72646337 12.65816996 18.07493128 14.6015625 21.42578125 C15.1763308 22.41936897 15.1763308 22.41936897 15.76271057 23.43302917 C18.70872924 28.52025767 21.72517592 33.55960658 24.8125 38.5625 C28.4560635 44.47708432 32.05956363 50.41294701 35.625 56.375 C40.10449593 63.86320067 44.62606465 71.32510243 49.16375732 78.77813721 C55.85003931 89.76164307 62.44973068 100.79111103 68.98608398 111.86474609 C73.70223336 119.84219156 78.48902281 127.77467928 83.3125 135.6875 C89.44629137 145.75008805 95.49737681 155.85864364 101.5 166 C109.52885486 179.56128499 117.66957238 193.05046802 125.87207031 206.50732422 C128.09218093 210.15020352 130.30833165 213.79548202 132.5234375 217.44140625 C133.08402107 218.36405525 133.08402107 218.36405525 133.65592957 219.30534363 C135.48886754 222.32276927 137.32068619 225.34086783 139.15063477 228.36010742 C142.11012312 233.24265066 145.07122683 238.12362668 148.06640625 242.984375 C148.49888672 243.69102295 148.93136719 244.3976709 149.37695312 245.12573242 C150.4567658 246.88976743 151.54251666 248.65016404 152.62890625 250.41015625 C154 253 154 253 154 256 C152.25708008 257.35595703 152.25708008 257.35595703 149.76953125 258.7578125 C148.8364917 259.29196777 147.90345215 259.82612305 146.94213867 260.37646484 C145.39296753 261.24198975 145.39296753 261.24198975 143.8125 262.125 C141.59595743 263.38993006 139.37982914 264.65558625 137.1640625 265.921875 C135.97952721 266.59446272 134.79495638 267.26698786 133.61035156 267.93945312 C128.21279723 271.01136255 122.86016911 274.15995705 117.50595093 277.30657959 C115.66977572 278.3854138 113.83267753 279.46266108 111.99536133 280.53955078 C102.70189935 285.98861735 93.43240072 291.47743325 84.16918945 296.9777832 C76.5338782 301.50820518 68.87952376 306.0047675 61.2154541 310.48629761 C51.36037275 316.2490396 41.53429697 322.05493034 31.75 327.9375 C30.72720947 328.54988525 29.70441895 329.16227051 28.65063477 329.79321289 C24.03725162 332.55763652 19.43953226 335.34067998 14.87890625 338.19140625 C14.09999023 338.67037354 13.32107422 339.14934082 12.51855469 339.64282227 C11.10307562 340.51363326 9.69532791 341.39721292 8.29785156 342.29663086 C5.43115489 344.04364098 3.55883116 345.03877565 0.1640625 344.80322266 C-3.36414058 343.90755999 -5.92671739 342.57579355 -9.05078125 340.7109375 C-9.6178479 340.37589706 -10.18491455 340.04085663 -10.76916504 339.69566345 C-12.6224017 338.59767451 -14.46734678 337.48650982 -16.3125 336.375 C-17.61304516 335.60099914 -18.91407763 334.82781656 -20.21557617 334.05541992 C-24.15108887 331.71583024 -28.07603711 329.35889126 -32 327 C-34.20829522 325.6757177 -36.41662615 324.35149492 -38.625 323.02734375 C-41.71865847 321.17081006 -44.81156307 319.31306407 -47.90258789 317.45214844 C-57.80672313 311.4947028 -67.79182239 305.68021815 -77.78369141 299.87158203 C-83.67357014 296.44423951 -89.55704477 293.00598274 -95.4375 289.5625 C-96.04658203 289.20584259 -96.65566406 288.84918518 -97.28320312 288.48171997 C-107.00531723 282.78541037 -116.68166234 277.01659977 -126.33544922 271.20507812 C-134.85564992 266.07708933 -143.41505312 261.01871035 -152 256 C-151.50902034 250.98445398 -149.80821373 247.60832746 -147.0625 243.5 C-146.14533839 242.08012207 -145.23156959 240.65804957 -144.3203125 239.234375 C-143.79985352 238.42162109 -143.27939453 237.60886719 -142.74316406 236.77148438 C-139.21161212 231.15661355 -135.83768062 225.44499644 -132.4375 219.75 C-130.86291693 217.11662571 -129.2872116 214.48392489 -127.7109375 211.8515625 C-127.31658508 211.19292206 -126.92223267 210.53428162 -126.51593018 209.85568237 C-122.56288354 203.25959267 -118.56368192 196.69195804 -114.5625 190.125 C-108.47139631 180.12447351 -102.46513166 170.07612784 -96.5 160 C-90.51080246 149.88435161 -84.48439958 139.79356451 -78.375 129.75 C-78.02825226 129.17992218 -77.68150452 128.60984436 -77.32424927 128.02249146 C-74.88506077 124.01363572 -72.44270862 120.00671141 -70 116 C-67.14358544 111.31386653 -64.28895814 106.62665126 -61.4375 101.9375 C-61.0850824 101.35802612 -60.73266479 100.77855225 -60.36956787 100.18151855 C-54.51271934 90.5454844 -48.75118974 80.85524503 -43.01928711 71.14428711 C-37.8942778 62.4746318 -32.6827778 53.86075301 -27.44033813 45.26190186 C-21.26349938 35.12748205 -15.19075306 24.93441686 -9.17578125 14.703125 C-2.42008143 3.23805767 -2.42008143 3.23805767 0 0 Z " fill="#353535" transform="translate(249,0)"/>
<path d="M0 0 C8.06925475 3.89504389 15.79680491 8.13760103 23.4375 12.8125 C25.633293 14.14328364 27.82994306 15.47265392 30.02734375 16.80078125 C30.59315155 17.1430777 31.15895935 17.48537415 31.74191284 17.83804321 C38.28906841 21.7916841 44.89482992 25.6443836 51.5 29.5 C61.71892939 35.46979046 71.89236707 41.5096936 82.0324707 47.61279297 C91.41639656 53.25894507 100.84123967 58.83399596 110.27636719 64.39404297 C114.02008871 66.60148293 117.76115971 68.81338827 121.50146484 71.02661133 C123.35445484 72.12144292 125.20891616 73.21378868 127.06494141 74.3034668 C131.40549142 76.85435413 135.71890535 79.43453467 139.984375 82.109375 C141.14779419 82.82734253 141.14779419 82.82734253 142.3347168 83.55981445 C143.77782839 84.45225048 145.2123148 85.35885053 146.63598633 86.28198242 C148.7564329 87.63834357 148.7564329 87.63834357 152 89 C155.60371657 87.90732152 158.72906827 86.1011726 161.96484375 84.19921875 C162.9182666 83.64097412 163.87168945 83.08272949 164.85400391 82.50756836 C165.87155762 81.9069458 166.88911133 81.30632324 167.9375 80.6875 C169.00145996 80.06302979 170.06541992 79.43855957 171.16162109 78.79516602 C174.44341297 76.86737466 177.72211445 74.93442465 181 73 C181.96341309 72.43216797 182.92682617 71.86433594 183.91943359 71.27929688 C189.3773034 68.06190515 194.83078371 64.83715383 200.28222656 61.60888672 C204.85308733 58.90299627 209.42669778 56.20176125 214 53.5 C215.83985348 52.41277688 217.67969724 51.32553732 219.51953125 50.23828125 C223.12082204 48.11021675 226.72240101 45.98264123 230.32421875 43.85546875 C234.8996033 41.15316363 239.47424066 38.44959742 244.04833984 35.74511719 C246.0693615 34.55022365 248.09052743 33.3555741 250.11181641 32.16113281 C253.4084896 30.2126215 256.70429058 28.26264091 260 26.3125 C261.66023193 25.33168457 261.66023193 25.33168457 263.35400391 24.33105469 C269.69930474 20.57509998 276.01884035 16.78078386 282.31640625 12.9453125 C284.38901004 11.68698587 286.46192964 10.42918093 288.53491211 9.17147827 C289.88242687 8.35138857 291.22814795 7.52834405 292.57202148 6.70230103 C294.44094316 5.55357392 296.31547503 4.41457569 298.19140625 3.27734375 C299.26592041 2.61984131 300.34043457 1.96233887 301.44750977 1.28491211 C302.28983154 0.86089111 303.13215332 0.43687012 304 0 C304.66 0.33 305.32 0.66 306 1 C302.09710419 6.94032206 298.06373496 12.75830526 293.875 18.5 C289.52426551 24.49435917 285.20313514 30.50725527 280.9375 36.5625 C280.44612549 37.25996338 279.95475098 37.95742676 279.44848633 38.67602539 C277.96487577 40.78346826 276.48224293 42.89159504 275 45 C268.92510058 53.64119356 262.82657622 62.26160099 256.625 70.8125 C251.41316317 77.99938158 246.30692209 85.25502775 241.23095703 92.53833008 C236.85145249 98.81149404 232.38977654 105.02040505 227.89453125 111.2109375 C223.2647985 117.6006413 218.74304594 124.06257904 214.23266602 130.53686523 C210.35817523 136.08820596 206.42033912 141.58850131 202.4375 147.0625 C198.01907877 153.13916649 193.72029809 159.28417981 189.5 165.5 C184.72313704 172.53523845 179.82331628 179.46572323 174.82446289 186.34472656 C170.99127731 191.62038354 167.19818771 196.92240749 163.4375 202.25 C162.94886475 202.94109863 162.46022949 203.63219727 161.95678711 204.34423828 C159.24495941 208.19203152 156.59287598 212.07103028 154 216 C150.52149089 214.84049696 150.07673383 214.07055411 148.06640625 211.125 C147.50622803 210.31337402 146.9460498 209.50174805 146.36889648 208.66552734 C145.77278564 207.78590332 145.1766748 206.9062793 144.5625 206 C143.29460534 204.1586238 142.02637077 202.3174816 140.7578125 200.4765625 C140.12391602 199.55133789 139.49001953 198.62611328 138.83691406 197.67285156 C136.23399529 193.88540409 133.59063656 190.12736955 130.9375 186.375 C130.4528125 185.68776855 129.968125 185.00053711 129.46875 184.29248047 C125.87443548 179.20647788 122.22301291 174.16346618 118.5625 169.125 C113.53785272 162.20515019 108.68103691 155.18492164 103.87744141 148.11035156 C99.62717895 141.86981583 95.24415855 135.73583414 90.8046875 129.62890625 C86.65508914 123.91945887 82.57499057 118.16450749 78.51708984 112.38964844 C74.91130999 107.26757374 71.24585712 102.19147507 67.5625 97.125 C63.07451886 90.94841176 58.71859575 84.69654031 54.4375 78.375 C49.92769578 71.71882922 45.2440253 65.24086366 40.37646484 58.84277344 C36.4907484 53.71388379 32.82797369 48.45910881 29.2121582 43.13769531 C25.74633512 38.0499536 22.17858513 33.04439968 18.5625 28.0625 C14.08707687 21.88714117 9.61522844 15.70969191 5.1875 9.5 C4.66551025 8.77562744 4.14352051 8.05125488 3.60571289 7.30493164 C0 2.22974839 0 2.22974839 0 0 Z " fill="#8E8E8E" transform="translate(97,284)"/>
<path d="M0 0 C0.66 0 1.32 0 2 0 C5 4.38461538 5 4.38461538 5 7 C4.01 7 3.02 7 2 7 C1.67 66.07 1.34 125.14 1 186 C-3.29 187.65 -7.58 189.3 -12 191 C-14.35025443 192.03421948 -16.68864439 193.09668522 -19.00390625 194.20703125 C-20.23362818 194.79161556 -21.46336519 195.37616818 -22.69311523 195.96069336 C-23.32240936 196.26200165 -23.95170349 196.56330994 -24.60006714 196.87374878 C-38.72887546 203.63241875 -52.99130727 210.06540809 -67.32836914 216.3684082 C-75.15809109 219.81545595 -82.93565777 223.34976975 -90.66723633 227.01194763 C-98.22109823 230.5880416 -105.82531365 234.05019121 -113.4375 237.5 C-114.14802521 237.8222757 -114.85855042 238.14455139 -115.59060669 238.47659302 C-119.77668804 240.37509681 -123.96401284 242.27083224 -128.15234375 244.16436768 C-129.84281745 244.92891166 -131.53276405 245.6946208 -133.22265625 246.46044922 C-135.79235306 247.62379373 -138.3642169 248.78211516 -140.9375 249.9375 C-141.65156006 250.26105469 -142.36562012 250.58460938 -143.10131836 250.91796875 C-147.7675526 253 -147.7675526 253 -150 253 C-150.33 253.99 -150.66 254.98 -151 256 C-151.69995117 254.36328125 -151.69995117 254.36328125 -152 252 C-150.7434082 249.29296875 -150.7434082 249.29296875 -148.80078125 246.1875 C-148.45484421 245.62635498 -148.10890717 245.06520996 -147.75248718 244.48706055 C-146.61709416 242.65076888 -145.46483523 240.82569776 -144.3125 239 C-143.51884766 237.72218214 -142.72653956 236.44352844 -141.93554688 235.1640625 C-140.35469559 232.60887676 -138.76858378 230.05708912 -137.17822266 227.5078125 C-134.39572599 223.03874934 -131.6920294 218.52398551 -129 214 C-125.05637233 207.40323793 -121.07545451 200.82997779 -117.078125 194.265625 C-110.14798541 182.88493706 -103.28765614 171.46628131 -96.5 160 C-90.51088297 149.88430467 -84.48439892 139.79356343 -78.375 129.75 C-78.02825226 129.17992218 -77.68150452 128.60984436 -77.32424927 128.02249146 C-74.88506077 124.01363572 -72.44270862 120.00671141 -70 116 C-67.14358544 111.31386653 -64.28895814 106.62665126 -61.4375 101.9375 C-61.0850824 101.35802612 -60.73266479 100.77855225 -60.36956787 100.18151855 C-54.51271934 90.5454844 -48.75118974 80.85524503 -43.01928711 71.14428711 C-37.8942778 62.4746318 -32.6827778 53.86075301 -27.44033813 45.26190186 C-21.26349938 35.12748205 -15.19075306 24.93441686 -9.17578125 14.703125 C-2.42008143 3.23805767 -2.42008143 3.23805767 0 0 Z " fill="#8C8C8C" transform="translate(249,0)"/>
<path d="M0 0 C0.00238835 0.80213865 0.00477671 1.60427731 0.00723743 2.43072319 C0.06630875 21.9259027 0.14180798 41.42095475 0.23571491 60.91599846 C0.28072873 70.34356445 0.32013037 79.77109219 0.34643555 89.19873047 C0.36937053 97.41345297 0.40271776 105.62805498 0.44870156 113.842682 C0.47269478 118.194465 0.49138344 122.54612823 0.49761391 126.89797592 C0.50363737 130.99051042 0.52353686 135.08273822 0.55427551 139.17515945 C0.56309996 140.68042628 0.56676927 142.18573312 0.56500816 143.69102478 C0.56336744 145.73976075 0.58174466 147.78848412 0.60127258 149.83712769 C0.60818603 151.55995877 0.60818603 151.55995877 0.61523914 153.31759453 C0.74221023 154.20278833 0.86918131 155.08798214 1 156 C1.99 156.66 2.98 157.32 4 158 C0.51258073 158.89692155 -1.43704221 159.22292954 -4.82983398 157.87939453 C-5.79219971 157.30302246 -6.75456543 156.72665039 -7.74609375 156.1328125 C-9.36112793 155.18220947 -9.36112793 155.18220947 -11.00878906 154.21240234 C-12.1519121 153.51696205 -13.29481123 152.8211536 -14.4375 152.125 C-15.6198869 151.42120604 -16.8031616 150.71890152 -17.98730469 150.01806641 C-21.33608262 148.03048176 -24.6684882 146.0163995 -28 144 C-29.42234257 143.14964426 -30.845359 142.30041283 -32.26953125 141.453125 C-34.59343525 140.06784871 -36.91191788 138.67412724 -39.2265625 137.2734375 C-53.07883152 128.90513869 -67.07767943 120.77761298 -81.04351807 112.60083008 C-90.97612717 106.78449306 -100.88760891 100.93376728 -110.77978516 95.04882812 C-116.8555837 91.43866194 -122.9488053 87.86292813 -129.06640625 84.32421875 C-131.07763418 83.15758384 -133.08863232 81.99055361 -135.09960938 80.82348633 C-136.39877376 80.07161918 -137.69937598 79.32223053 -139.00146484 78.57543945 C-140.8078972 77.5393492 -142.60939615 76.49512729 -144.41015625 75.44921875 C-145.44277588 74.85455811 -146.47539551 74.25989746 -147.53930664 73.6472168 C-150 72 -150 72 -152 69 C-149.3669165 65.8445639 -146.04104814 64.4397146 -142.3671875 62.8125 C-141.70650269 62.51351807 -141.04581787 62.21453613 -140.3651123 61.90649414 C-138.20467584 60.9309919 -136.0399655 59.96540376 -133.875 59 C-132.37689099 58.3260205 -130.87900854 57.65153719 -129.38134766 56.9765625 C-119.45935811 52.5128096 -109.51297498 48.10208024 -99.53466797 43.765625 C-92.99964565 40.91818114 -86.53311408 37.93632251 -80.07958984 34.91015625 C-75.78092247 32.89474414 -71.47345289 30.89861354 -67.1640625 28.90625 C-66.01673897 28.37576553 -66.01673897 28.37576553 -64.84623718 27.83456421 C-58.14282335 24.73674789 -51.43592977 21.6464892 -44.72764587 18.55923462 C-39.69203518 16.24153554 -34.65949719 13.91735405 -29.6295166 11.58746338 C-26.5800951 10.17688781 -23.52775645 8.77271918 -20.47454834 7.37036133 C-19.04107188 6.71041909 -17.60880235 6.0478485 -16.17779541 5.38256836 C-14.20111592 4.46413592 -12.22034431 3.55518012 -10.23828125 2.6484375 C-8.5682605 1.87765869 -8.5682605 1.87765869 -6.86450195 1.09130859 C-4 0 -4 0 0 0 Z " fill="#3A3A3A" transform="translate(250,186)"/>
<path d="M0 0 C6.6 2.97 13.2 5.94 20 9 C24.95 10.98 24.95 10.98 30 13 C32.34904163 14.13470655 34.68440466 15.29851185 37 16.5 C41.7478744 18.93047481 46.51725244 21.06743843 51.5 22.96875 C55.51552447 24.62515384 59.3359057 26.65994174 63.203125 28.6328125 C65.42152479 29.7172258 67.54878067 30.63227023 69.875 31.4375 C73.72061104 32.78627381 77.30933316 34.59710471 80.9375 36.4375 C86.23106335 39.12242974 91.54827965 41.65390363 97 44 C99.58409885 45.12328065 102.16757222 46.24789143 104.75 47.375 C105.44101807 47.67647949 106.13203613 47.97795898 106.84399414 48.28857422 C112.24963022 50.65444789 117.61359753 53.10320517 122.96484375 55.58984375 C132.83839807 60.17717079 142.61824938 64.68066477 153 68 C153 68.99 153 69.98 153 71 C151.25708008 72.35595703 151.25708008 72.35595703 148.76953125 73.7578125 C147.8364917 74.29196777 146.90345215 74.82612305 145.94213867 75.37646484 C144.90935791 75.95348145 143.87657715 76.53049805 142.8125 77.125 C140.59595743 78.38993006 138.37982914 79.65558625 136.1640625 80.921875 C134.97952721 81.59446272 133.79495638 82.26698786 132.61035156 82.93945312 C127.21279723 86.01136255 121.86016911 89.15995705 116.50595093 92.30657959 C114.66977572 93.3854138 112.83267753 94.46266108 110.99536133 95.53955078 C101.70189935 100.98861735 92.43240072 106.47743325 83.16918945 111.9777832 C74.31577953 117.23096563 65.43439764 122.43511754 56.54733276 127.631073 C47.85070961 132.71785418 39.19403271 137.86579149 30.5625 143.0625 C27.58473972 144.8502744 24.60637525 146.63703341 21.62744141 148.42285156 C19.96675534 149.41969527 18.30739666 150.41875664 16.64990234 151.42089844 C14.68936028 152.60376031 12.72151905 153.77306066 10.75 154.9375 C9.73421875 155.54464844 8.7184375 156.15179688 7.671875 156.77734375 C5 158 5 158 0 158 C0 105.86 0 53.72 0 0 Z " fill="#151515" transform="translate(250,185)"/>
<path d="M0 0 C0.99 0.495 0.99 0.495 2 1 C-1.90289581 6.94032206 -5.93626504 12.75830526 -10.125 18.5 C-14.47573449 24.49435917 -18.79686486 30.50725527 -23.0625 36.5625 C-23.55387451 37.25996338 -24.04524902 37.95742676 -24.55151367 38.67602539 C-26.03512423 40.78346826 -27.51775707 42.89159504 -29 45 C-35.07489942 53.64119356 -41.17342378 62.26160099 -47.375 70.8125 C-52.58683683 77.99938158 -57.69307791 85.25502775 -62.76904297 92.53833008 C-67.14854751 98.81149404 -71.61022346 105.02040505 -76.10546875 111.2109375 C-80.7352015 117.6006413 -85.25695406 124.06257904 -89.76733398 130.53686523 C-93.64182477 136.08820596 -97.57966088 141.58850131 -101.5625 147.0625 C-105.98092123 153.13916649 -110.27970191 159.28417981 -114.5 165.5 C-119.2752446 172.53285497 -124.15970113 179.47186799 -129.17773438 186.33374023 C-131.95516078 190.13751513 -134.67417556 193.96655133 -137.30859375 197.87109375 C-137.84476318 198.65790527 -138.38093262 199.4447168 -138.93334961 200.25537109 C-139.95279188 201.75665354 -140.96079455 203.26578952 -141.95532227 204.78369141 C-142.41350342 205.4544873 -142.87168457 206.1252832 -143.34375 206.81640625 C-143.93446289 207.70501343 -143.93446289 207.70501343 -144.53710938 208.61157227 C-146.51798373 210.49161774 -148.35543198 210.54628791 -151 211 C-151.21036739 195.32741008 -151.36900869 179.65520203 -151.46630955 163.98155022 C-151.51269214 156.70369105 -151.57590872 149.4267097 -151.67895508 142.14941406 C-151.76874265 135.8054429 -151.82674228 129.46210744 -151.84679645 123.11751854 C-151.85851795 119.75857399 -151.88599765 116.40144777 -151.95157051 113.04308701 C-152.01684478 109.29048279 -152.02590481 105.54165407 -152.02172852 101.78857422 C-152.054086 100.67870651 -152.08644348 99.56883881 -152.11978149 98.42533875 C-152.03084274 91.04711429 -152.03084274 91.04711429 -149.03914642 88.00819492 C-146.7510082 86.46179937 -144.48335557 85.20167415 -142 84 C-140.95376465 83.36795654 -139.9075293 82.73591309 -138.82958984 82.0847168 C-137.88293457 81.54500244 -136.9362793 81.00528809 -135.9609375 80.44921875 C-134.89391602 79.83804199 -133.82689453 79.22686523 -132.72753906 78.59716797 C-131.62120117 77.96697754 -130.51486328 77.33678711 -129.375 76.6875 C-127.04315099 75.35220876 -124.71284436 74.01424033 -122.3828125 72.67578125 C-120.71847168 71.71986084 -120.71847168 71.71986084 -119.02050781 70.74462891 C-115.40773463 68.65791074 -111.81974342 66.53432212 -108.25 64.375 C-102.33393463 60.7965639 -96.3917874 57.26452214 -90.4375 53.75 C-89.49898193 53.19594482 -88.56046387 52.64188965 -87.59350586 52.07104492 C-85.67603118 50.93930542 -83.75846876 49.80771456 -81.84082031 48.67626953 C-74.54222613 44.36962226 -67.24643803 40.05822493 -59.95166016 35.74511719 C-57.9306385 34.55022365 -55.90947257 33.3555741 -53.88818359 32.16113281 C-50.5915104 30.2126215 -47.29570942 28.26264091 -44 26.3125 C-42.89317871 25.65862305 -41.78635742 25.00474609 -40.64599609 24.33105469 C-34.30069526 20.57509998 -27.98115965 16.78078386 -21.68359375 12.9453125 C-19.61098996 11.68698587 -17.53807036 10.42918093 -15.46508789 9.17147827 C-14.11757313 8.35138857 -12.77185205 7.52834405 -11.42797852 6.70230103 C-9.55905684 5.55357392 -7.68452497 4.41457569 -5.80859375 3.27734375 C-4.73407959 2.61984131 -3.65956543 1.96233887 -2.55249023 1.28491211 C-1.71016846 0.86089111 -0.86784668 0.43687012 0 0 Z " fill="#3E3E3C" transform="translate(401,284)"/>
<path d="M0 0 C1.37562854 1.28965176 2.70766393 2.62689293 4 4 C4 4.66 4 5.32 4 6 C3.01 6 2.02 6 1 6 C0.67 65.07 0.34 124.14 0 185 C-0.66 184.67 -1.32 184.34 -2 184 C-1.89290924 160.15700313 -1.78017491 136.31403879 -1.66066074 112.47110081 C-1.60530499 101.40123632 -1.5518192 90.33136861 -1.50268555 79.26147461 C-1.45987245 69.61666919 -1.41360184 59.97188774 -1.36312145 50.32711929 C-1.33649728 45.21694845 -1.31164371 40.10678243 -1.29092598 34.99658394 C-1.27139499 30.19255111 -1.24726204 25.38856399 -1.21950912 20.58457184 C-1.21011987 18.81602492 -1.20245139 17.04746796 -1.19658089 15.27890587 C-1.18835139 12.87510065 -1.17408395 10.47140731 -1.15821838 8.06764221 C-1.15724028 7.35851152 -1.15626217 6.64938082 -1.15525442 5.91876131 C-1.11412121 1.11412121 -1.11412121 1.11412121 0 0 Z " fill="#7C7C7C" transform="translate(250,1)"/>
<path d="M0 0 C1.32 0 2.64 0 4 0 C4.00238835 0.80213865 4.00477671 1.60427731 4.00723743 2.43072319 C4.06630875 21.9259027 4.14180798 41.42095475 4.23571491 60.91599846 C4.28072873 70.34356445 4.32013037 79.77109219 4.34643555 89.19873047 C4.36937053 97.41345297 4.40271776 105.62805498 4.44870156 113.842682 C4.47269478 118.194465 4.49138344 122.54612823 4.49761391 126.89797592 C4.50363737 130.99051042 4.52353686 135.08273822 4.55427551 139.17515945 C4.56309996 140.68042628 4.56676927 142.18573312 4.56500816 143.69102478 C4.56336744 145.73976075 4.58174466 147.78848412 4.60127258 149.83712769 C4.60588155 150.98568174 4.61049051 152.1342358 4.61523914 153.31759453 C4.74221023 154.20278833 4.86918131 155.08798214 5 156 C5.99 156.66 6.98 157.32 8 158 C6.02 158.33 4.04 158.66 2 159 C2.33 107.52 2.66 56.04 3 3 C1.35 2.67 -0.3 2.34 -2 2 C-1.34 1.34 -0.68 0.68 0 0 Z " fill="#424242" transform="translate(246,186)"/>
<path d="M0 0 C0.33 0 0.66 0 1 0 C1 39.6 1 79.2 1 120 C2.32 120.33 3.64 120.66 5 121 C3.68 121.99 2.36 122.98 1 124 C-0.23771218 121.52457564 -0.12309772 119.89717764 -0.12025452 117.12789917 C-0.12162918 116.09862305 -0.12300385 115.06934692 -0.12442017 114.00888062 C-0.12082489 112.87528107 -0.11722961 111.74168152 -0.11352539 110.57373047 C-0.11367142 109.38350281 -0.11381744 108.19327515 -0.1139679 106.96697998 C-0.11338958 103.6985906 -0.10836573 100.43024373 -0.10139394 97.16186285 C-0.09515317 93.74789457 -0.09455603 90.3339255 -0.09336853 86.91995239 C-0.09025735 80.45305527 -0.08204683 73.98617501 -0.07201904 67.51928532 C-0.06085129 60.15783358 -0.05534578 52.79638104 -0.05032361 45.43492293 C-0.03986405 30.28993922 -0.02226873 15.14497129 0 0 Z " fill="#7A7A78" transform="translate(249,375)"/>
<path d="M0 0 C0.66 0.33 1.32 0.66 2 1 C1.08333333 2.375 0.16666667 3.75 -0.75 5.125 C-1.56597656 6.34896484 -1.56597656 6.34896484 -2.3984375 7.59765625 C-4.265625 10.3984375 -6.1328125 13.19921875 -8 16 C-8.33 15.34 -8.66 14.68 -9 14 C-11.31 14.33 -13.62 14.66 -16 15 C-16 14.01 -16 13.02 -16 12 C-16.928125 12.680625 -17.85625 13.36125 -18.8125 14.0625 C-19.864375 14.701875 -20.91625 15.34125 -22 16 C-22.99 15.67 -23.98 15.34 -25 15 C-21.48243291 12.83519739 -17.95865643 10.68093973 -14.42871094 8.53637695 C-13.22804945 7.80489653 -12.02914387 7.07052597 -10.83203125 6.33325195 C-9.11398958 5.27583144 -7.38911817 4.22953268 -5.6640625 3.18359375 C-4.62717285 2.54993896 -3.5902832 1.91628418 -2.52197266 1.26342773 C-1.68972168 0.84649658 -0.8574707 0.42956543 0 0 Z " fill="#545454" transform="translate(401,284)"/>
<path d="M0 0 C0.66 0.33 1.32 0.66 2 1 C-0.97 5.455 -0.97 5.455 -4 10 C-4.66 9.67 -5.32 9.34 -6 9 C-6 8.34 -6 7.68 -6 7 C-7.32 6.67 -8.64 6.34 -10 6 C-8.3811004 4.96951963 -6.75467511 3.95085322 -5.125 2.9375 C-4.22007812 2.36902344 -3.31515625 1.80054688 -2.3828125 1.21484375 C-1.20332031 0.61349609 -1.20332031 0.61349609 0 0 Z " fill="#686866" transform="translate(401,284)"/>
<path d="M0 0 C7 8.44827586 7 8.44827586 7 12 C5.68 11.67 4.36 11.34 3 11 C2.67 9.68 2.34 8.36 2 7 C0.68 6.67 -0.64 6.34 -2 6 C-1.34 4.02 -0.68 2.04 0 0 Z " fill="#575757" transform="translate(395,241)"/>
<path d="M0 0 C0.99 0.99 1.98 1.98 3 3 C2.67 3.99 2.34 4.98 2 6 C0.66666667 6.33333333 -0.66666667 6.66666667 -2 7 C-2.33 7.99 -2.66 8.98 -3 10 C-3.75 8.375 -3.75 8.375 -4 6 C-2.0625 2.75 -2.0625 2.75 0 0 Z " fill="#9C9C9C" transform="translate(101,246)"/>
<path d="M0 0 C1.37562854 1.28965176 2.70766393 2.62689293 4 4 C4 4.66 4 5.32 4 6 C3.01 6 2.02 6 1 6 C0.67 7.98 0.34 9.96 0 12 C-0.33 12 -0.66 12 -1 12 C-1.02687279 10.18757948 -1.04633715 8.37504767 -1.0625 6.5625 C-1.07410156 5.55316406 -1.08570313 4.54382813 -1.09765625 3.50390625 C-1 1 -1 1 0 0 Z " fill="#6D6D6D" transform="translate(250,1)"/>
<path d="M0 0 C1.65 0.33 3.3 0.66 5 1 C2.64722731 3.72426311 0.37503669 4.8141763 -3 6 C-3 5.34 -3 4.68 -3 4 C-2.34 4 -1.68 4 -1 4 C-0.67 2.68 -0.34 1.36 0 0 Z " fill="#383838" transform="translate(294,315)"/>
<path d="M0 0 C0.66 0.33 1.32 0.66 2 1 C0.02 3.97 0.02 3.97 -2 7 C-2.99 5.68 -3.98 4.36 -5 3 C-2.625 1.4375 -2.625 1.4375 0 0 Z " fill="#888887" transform="translate(401,284)"/>
<path d="M0 0 C1.32 0.66 2.64 1.32 4 2 C1.69 3.32 -0.62 4.64 -3 6 C-3.33 4.68 -3.66 3.36 -4 2 C-3.01 2 -2.02 2 -1 2 C-0.67 1.34 -0.34 0.68 0 0 Z " fill="#414141" transform="translate(273,328)"/>
<path d="M0 0 C0.93423645 3.01031744 1.04449911 3.86650268 0 7 C-2.0625 7.6875 -2.0625 7.6875 -4 8 C-2.87548273 5.0280615 -1.77706209 2.66559313 0 0 Z " fill="#AEAEAE" transform="translate(134,191)"/>
</svg>
