<?xml version="1.0" encoding="UTF-8"?>
<svg version="1.1" xmlns="http://www.w3.org/2000/svg" width="500" height="500">
<path d="M0 0 C3.71304094 1.23768031 3.94843182 2.17521257 5.78515625 5.53125 C6.31101318 6.4790332 6.83687012 7.42681641 7.37866211 8.40332031 C7.93432861 9.42522461 8.48999512 10.44712891 9.0625 11.5 C10.23049823 13.61007993 11.39978049 15.71944959 12.5703125 17.828125 C13.14942383 18.87548828 13.72853516 19.92285156 14.32519531 21.00195312 C16.62865315 25.12534412 19.02168125 29.19174342 21.4375 33.25 C24.57014412 38.5327519 27.60091007 43.85028175 30.5078125 49.26171875 C32.88995068 53.63312938 35.387359 57.93808893 37.875 62.25 C40.08555986 66.1190163 42.21091789 70.0333849 44.33984375 73.94775391 C47.37906082 79.53544387 50.43546946 85.11365931 53.5 90.6875 C54.01241745 91.62020218 54.01241745 91.62020218 54.53518677 92.57174683 C60.0968243 102.68321426 65.82260197 112.68193278 71.74609375 122.58666992 C72.29265625 123.50810791 72.83921875 124.4295459 73.40234375 125.37890625 C73.88179443 126.1788501 74.36124512 126.97879395 74.85522461 127.80297852 C76.00089748 130.00172243 76.78316119 131.52939655 77 134 C76.01538086 136.49853516 76.01538086 136.49853516 74.46484375 139.2890625 C73.90216797 140.31386719 73.33949219 141.33867187 72.75976562 142.39453125 C72.15841797 143.46058594 71.55707031 144.52664063 70.9375 145.625 C70.36322266 146.66785156 69.78894531 147.71070313 69.19726562 148.78515625 C66.00237237 154.55541442 62.68632904 160.24037643 59.27075195 165.88232422 C57.8183302 168.30274809 56.45286582 170.75922064 55.125 173.25 C51.12229323 180.65707078 46.90831489 187.94268397 42.71142578 195.24072266 C36.1532223 206.65007128 29.70599346 218.11580483 23.34057617 229.63363647 C19.05313906 237.38472425 14.68084969 245.05678332 10.02734375 252.59375 C8.23688515 255.60199643 6.54457277 258.63758451 4.87329102 261.71289062 C4.33470963 262.70309204 3.79612823 263.69329346 3.2412262 264.71350098 C2.83162155 265.46804565 2.42201691 266.22259033 2 267 C-17.60146757 267.16349368 -37.20279687 267.28694713 -56.8048048 267.3626852 C-65.90631586 267.39878595 -75.00740337 267.44800666 -84.10864258 267.52807617 C-92.04095833 267.59782866 -99.97296738 267.64300318 -107.9055813 267.65861946 C-112.10636219 267.66774879 -116.30626563 267.68921394 -120.50676537 267.7401104 C-124.46078482 267.78763207 -128.41356572 267.80228011 -132.36784363 267.79175377 C-133.81872605 267.7936793 -135.26964993 267.80760181 -136.72028542 267.83443832 C-147.68498236 268.02733031 -147.68498236 268.02733031 -150.94052505 265.48400497 C-152.30162048 263.62065125 -152.30162048 263.62065125 -154 260 C-154.52899902 259.10071777 -155.05799805 258.20143555 -155.60302734 257.27490234 C-156.0511377 256.42879395 -156.49924805 255.58268555 -156.9609375 254.7109375 C-157.46592773 253.76573242 -157.97091797 252.82052734 -158.49121094 251.84667969 C-158.98911133 250.90727539 -159.48701172 249.96787109 -160 249 C-160.92779857 247.28283222 -161.8574446 245.56666117 -162.7890625 243.8515625 C-163.24901611 243.00311768 -163.70896973 242.15467285 -164.18286133 241.28051758 C-169.10851558 232.21054275 -174.13149562 223.20637095 -179.28100586 214.26171875 C-183.49530308 206.92609892 -187.59655403 199.52979587 -191.6875 192.125 C-196.04308495 184.24289938 -200.45652462 176.41630784 -205.14355469 168.72631836 C-207.66612187 164.584601 -210.03336328 160.38532491 -212.3125 156.10546875 C-213.71605275 153.52254182 -215.15803161 150.97277404 -216.625 148.42578125 C-217.087854 147.61471924 -217.55070801 146.80365723 -218.02758789 145.96801758 C-218.9563642 144.34221677 -219.89288116 142.72080989 -220.83764648 141.10424805 C-221.26118408 140.35828369 -221.68472168 139.61231934 -222.12109375 138.84375 C-222.5070874 138.17537109 -222.89308105 137.50699219 -223.29077148 136.81835938 C-224 135 -224 135 -223 132 C-173.83 131.67 -124.66 131.34 -74 131 C-65.20425804 115.44566443 -65.20425804 115.44566443 -56.4375 99.875 C-53.09214303 93.92026459 -49.7081825 87.98865614 -46.3125 82.0625 C-39.98278557 71.01154166 -33.7663546 59.89809953 -27.55419922 48.78076172 C-21.51052484 37.96746433 -15.4097456 27.18866019 -9.24755859 16.44238281 C-6.12129684 10.98536718 -3.03961286 5.50576098 0 0 Z " fill="#161616" transform="translate(324,217)"/>
<path d="M0 0 C2.17074587 -0.00102079 4.3385607 -0.02464898 6.50880432 -0.0680542 C10.14144884 -0.13932911 13.77029881 -0.13367033 17.40357971 -0.12615967 C18.67781799 -0.16225342 19.95205627 -0.19834717 21.26490784 -0.23553467 C30.31692061 -0.14069954 30.31692061 -0.14069954 33.53688049 3.05230713 C35.1020998 5.63950525 36.308109 8.20827388 37.46607971 10.99884033 C38.13391989 12.20911772 38.81928986 13.41003556 39.52857971 14.59649658 C40.16795471 15.73989502 40.80732971 16.88329346 41.46607971 18.06134033 C42.01630798 19.04276001 42.01630798 19.04276001 42.57765198 20.04400635 C44.99382904 24.35591544 47.39958055 28.67362549 49.80592346 32.99102783 C55.50355818 43.20319466 61.22568269 53.38941939 67.19581604 63.44512939 C69.89365696 67.99657357 72.4698465 72.59907285 74.97389221 77.26055908 C77.35603039 81.63196972 79.85343871 85.93692926 82.34107971 90.24884033 C84.5324703 94.08350881 86.63503599 97.96529909 88.74440002 101.84552002 C90.66624105 105.36544326 92.60719109 108.87439704 94.55201721 112.38165283 C95.26168199 113.66288657 95.97131722 114.94413667 96.68092346 116.22540283 C97.7728246 118.1966841 98.86538313 120.1675886 99.95973206 122.13751221 C101.03408146 124.07200169 102.1057908 126.0079327 103.17701721 127.94415283 C103.80914124 129.08384521 104.44126526 130.2235376 105.09254456 131.39776611 C106.46607971 133.99884033 106.46607971 133.99884033 106.46607971 134.99884033 C56.63607971 135.32884033 6.80607971 135.65884033 -44.53392029 135.99884033 C-45.19392029 137.64884033 -45.85392029 139.29884033 -46.53392029 140.99884033 C-47.63243986 143.11505773 -48.76193313 145.21533108 -49.91282654 147.30352783 C-50.24097855 147.8999408 -50.56913055 148.49635376 -50.90722656 149.11083984 C-51.96694233 151.03371132 -53.03136651 152.95392108 -54.09642029 154.87384033 C-54.63840057 155.854263 -54.63840057 155.854263 -55.19132996 156.85449219 C-59.87757735 165.32954286 -64.66130052 173.72640083 -69.71751404 181.98712158 C-71.98434349 185.74567105 -74.06572856 189.58846623 -76.13938904 193.45587158 C-77.54161402 196.01287008 -79.01983386 198.5066619 -80.53392029 200.99884033 C-83.12582697 205.26944305 -85.52932513 209.6185959 -87.90110779 214.01446533 C-90.33603244 218.46490177 -92.87397428 222.85493392 -95.40892029 227.24884033 C-98.79750191 233.17947577 -102.0158793 239.20591698 -105.27757263 245.20684814 C-107.08290899 248.51769295 -108.9010926 251.82121806 -110.72142029 255.12384033 C-111.33694763 256.25821533 -111.95247498 257.39259033 -112.58665466 258.56134033 C-113.18155701 259.63641846 -113.77645935 260.71149658 -114.38938904 261.81915283 C-114.92201355 262.79126709 -115.45463806 263.76338135 -116.00340271 264.76495361 C-117.53392029 266.99884033 -117.53392029 266.99884033 -120.53392029 267.99884033 C-120.87536072 267.36083496 -121.21680115 266.72282959 -121.56858826 266.06549072 C-129.6295294 251.02785228 -137.95651024 236.22214118 -146.78392029 221.62384033 C-148.72033578 218.40830122 -150.56362795 215.15711422 -152.35423279 211.85821533 C-152.87952576 210.89157959 -153.40481873 209.92494385 -153.94602966 208.92901611 C-155.40525259 206.23627417 -156.86418221 203.5433736 -158.32298279 200.85040283 C-166.92358477 184.98429406 -175.80523185 169.29488951 -184.97142029 153.74884033 C-185.3812616 153.05000732 -185.79110291 152.35117432 -186.21336365 151.63116455 C-187.88140796 148.78793073 -189.55887482 145.95870329 -191.29954529 143.15899658 C-192.00337341 141.99690674 -192.00337341 141.99690674 -192.72142029 140.81134033 C-193.10684998 140.19903564 -193.49227966 139.58673096 -193.88938904 138.95587158 C-195.13356693 135.17809507 -194.13530043 132.22090677 -192.41600037 128.72711182 C-190.94043029 126.05795572 -189.40607011 123.43223115 -187.84642029 120.81134033 C-186.74538686 118.92637498 -185.64511769 117.04096299 -184.54563904 115.15509033 C-184.02018494 114.25919189 -183.49473083 113.36329346 -182.95335388 112.44024658 C-181.29826934 109.59352395 -179.71431057 106.71362353 -178.15892029 103.81134033 C-176.36695723 100.48415747 -174.49377044 97.23008046 -172.53392029 93.99884033 C-169.99305647 89.80772475 -167.62128242 85.54861789 -165.29173279 81.23712158 C-163.10414945 77.20710694 -160.88459698 73.1954145 -158.65892029 69.18634033 C-158.23264343 68.41797852 -157.80636658 67.6496167 -157.36717224 66.85797119 C-153.98446099 60.77549152 -150.52763862 54.73853685 -147.03001404 48.72149658 C-145.44383871 46.02813752 -145.44383871 46.02813752 -144.53392029 42.99884033 C-143.87392029 42.99884033 -143.21392029 42.99884033 -142.53392029 42.99884033 C-142.43917419 42.03010986 -142.43917419 42.03010986 -142.34251404 41.04180908 C-141.18231389 36.67564525 -138.91433179 33.16395658 -136.59642029 29.31134033 C-132.72761911 22.81381162 -128.98864905 16.25498263 -125.32469177 9.64019775 C-124.86284233 8.80757164 -124.40099289 7.97494553 -123.92514801 7.11708832 C-122.7941798 5.07798138 -121.66378567 3.03855849 -120.53392029 0.99884033 C-106.41622736 0.86772619 -92.29852811 0.73731279 -78.18082142 0.6076889 C-71.62444581 0.54747043 -65.06807237 0.4870335 -58.51170349 0.42608643 C-52.17692214 0.36720742 -45.84213562 0.30891649 -39.5073452 0.25102234 C-37.09821571 0.22890388 -34.6890881 0.20657843 -32.27996254 0.18403625 C-10.15370013 -0.02276149 -10.15370013 -0.02276149 0 0 Z " fill="#161616" transform="translate(293.53392028808594,15.00115966796875)"/>
<path d="M0 0 C0 3.19913581 -0.48279098 4.26682222 -1.96875 7.01171875 C-2.37480469 7.76904297 -2.78085938 8.52636719 -3.19921875 9.30664062 C-3.62847656 10.09232422 -4.05773437 10.87800781 -4.5 11.6875 C-4.92925781 12.48478516 -5.35851562 13.28207031 -5.80078125 14.10351562 C-6.86168088 16.07207383 -7.92824677 18.03733606 -9 20 C-9.66 20 -10.32 20 -11 20 C-11.26425781 20.8765625 -11.52851563 21.753125 -11.80078125 22.65625 C-12.97228274 25.9227167 -14.37643644 28.54925114 -16.1875 31.5 C-18.84274913 35.93641003 -21.23897871 40.41286028 -23.5 45.0625 C-26.11878549 50.40011446 -29.00376186 55.37551283 -32.32421875 60.3046875 C-33.63590372 62.4143906 -34.74811733 64.44919379 -35.8359375 66.671875 C-38.75601914 72.62954097 -42.15817269 78.31321415 -45.49023438 84.046875 C-48.88466016 89.92997129 -52.03368019 95.88972659 -55 102 C-55.66 102 -56.32 102 -57 102 C-57.36158203 103.24330078 -57.36158203 103.24330078 -57.73046875 104.51171875 C-59.20530621 108.56411828 -61.15522716 112.09217849 -63.3125 115.8125 C-64.12123398 117.22778446 -64.92982859 118.64314857 -65.73828125 120.05859375 C-66.12709473 120.73519043 -66.5159082 121.41178711 -66.91650391 122.10888672 C-68.2978331 124.51983217 -69.65260666 126.94495043 -71 129.375 C-71.37125 130.04273438 -71.7425 130.71046875 -72.125 131.3984375 C-72.77392271 132.58619782 -73.39471077 133.78942154 -74 135 C-24.5 135 25 135 76 135 C76 135.33 76 135.66 76 136 C56.39853243 136.16349368 36.79720313 136.28694713 17.1951952 136.3626852 C8.09368414 136.39878595 -1.00740337 136.44800666 -10.10864258 136.52807617 C-18.04095833 136.59782866 -25.97296738 136.64300318 -33.9055813 136.65861946 C-38.10636219 136.66774879 -42.30626563 136.68921394 -46.50676537 136.7401104 C-50.46078482 136.78763207 -54.41356572 136.80228011 -58.36784363 136.79175377 C-59.81872605 136.7936793 -61.26964993 136.80760181 -62.72028542 136.83443832 C-73.68498236 137.02733031 -73.68498236 137.02733031 -76.94052505 134.48400497 C-78.30162048 132.62065125 -78.30162048 132.62065125 -80 129 C-80.52899902 128.10071777 -81.05799805 127.20143555 -81.60302734 126.27490234 C-82.0511377 125.42879395 -82.49924805 124.58268555 -82.9609375 123.7109375 C-83.46592773 122.76573242 -83.97091797 121.82052734 -84.49121094 120.84667969 C-84.98911133 119.90727539 -85.48701172 118.96787109 -86 118 C-86.92779857 116.28283222 -87.8574446 114.56666117 -88.7890625 112.8515625 C-89.24901611 112.00311768 -89.70896973 111.15467285 -90.18286133 110.28051758 C-95.10851558 101.21054275 -100.13149562 92.20637095 -105.28100586 83.26171875 C-109.49530308 75.92609892 -113.59655403 68.52979587 -117.6875 61.125 C-122.04308495 53.24289938 -126.45652462 45.41630784 -131.14355469 37.72631836 C-133.66612187 33.584601 -136.03336328 29.38532491 -138.3125 25.10546875 C-139.71605275 22.52254182 -141.15803161 19.97277404 -142.625 17.42578125 C-143.087854 16.61471924 -143.55070801 15.80365723 -144.02758789 14.96801758 C-144.9563642 13.34221677 -145.89288116 11.72080989 -146.83764648 10.10424805 C-147.47295288 8.98530151 -147.47295288 8.98530151 -148.12109375 7.84375 C-148.70008423 6.84118164 -148.70008423 6.84118164 -149.29077148 5.81835938 C-150 4 -150 4 -149 1 C-99.83 0.67 -50.66 0.34 0 0 Z " fill="#696969" transform="translate(250,348)"/>
<path d="M0 0 C2.17074587 -0.00102079 4.3385607 -0.02464898 6.50880432 -0.0680542 C10.14144884 -0.13932911 13.77029881 -0.13367033 17.40357971 -0.12615967 C18.67781799 -0.16225342 19.95205627 -0.19834717 21.26490784 -0.23553467 C30.31692061 -0.14069954 30.31692061 -0.14069954 33.53688049 3.05230713 C35.1020998 5.63950525 36.308109 8.20827388 37.46607971 10.99884033 C38.13391989 12.20911772 38.81928986 13.41003556 39.52857971 14.59649658 C40.16795471 15.73989502 40.80732971 16.88329346 41.46607971 18.06134033 C42.01630798 19.04276001 42.01630798 19.04276001 42.57765198 20.04400635 C44.99382904 24.35591544 47.39958055 28.67362549 49.80592346 32.99102783 C55.50355818 43.20319466 61.22568269 53.38941939 67.19581604 63.44512939 C69.89365696 67.99657357 72.4698465 72.59907285 74.97389221 77.26055908 C77.35603039 81.63196972 79.85343871 85.93692926 82.34107971 90.24884033 C84.5324703 94.08350881 86.63503599 97.96529909 88.74440002 101.84552002 C90.66624105 105.36544326 92.60719109 108.87439704 94.55201721 112.38165283 C95.26168199 113.66288657 95.97131722 114.94413667 96.68092346 116.22540283 C97.7728246 118.1966841 98.86538313 120.1675886 99.95973206 122.13751221 C101.03408146 124.07200169 102.1057908 126.0079327 103.17701721 127.94415283 C103.80914124 129.08384521 104.44126526 130.2235376 105.09254456 131.39776611 C106.46607971 133.99884033 106.46607971 133.99884033 106.46607971 134.99884033 C56.63607971 135.32884033 6.80607971 135.65884033 -44.53392029 135.99884033 C-39.86892102 126.6688418 -35.28049346 117.51230587 -30.09642029 108.49884033 C-28.96602167 106.51717803 -27.835814 104.5354068 -26.70579529 102.55352783 C-26.16374451 101.60574463 -25.62169373 100.65796143 -25.06321716 99.68145752 C-23.33430893 96.64869193 -21.62748627 93.60414923 -19.92552185 90.55621338 C-16.10204185 83.70941605 -12.17607226 76.92936494 -8.15818787 70.19464111 C-5.37306909 65.50520247 -2.73822205 60.74582164 -0.13865662 55.95123291 C2.71648461 50.69834644 5.62535724 45.47525782 8.52857971 40.24884033 C9.3977301 38.6806958 9.3977301 38.6806958 10.28443909 37.08087158 C16.6143176 25.68306277 23.05021243 14.34999013 29.46607971 2.99884033 C-20.03392029 2.99884033 -69.53392029 2.99884033 -120.53392029 2.99884033 C-120.53392029 2.33884033 -120.53392029 1.67884033 -120.53392029 0.99884033 C-106.41622736 0.86772619 -92.29852811 0.73731279 -78.18082142 0.6076889 C-71.62444581 0.54747043 -65.06807237 0.4870335 -58.51170349 0.42608643 C-52.17692214 0.36720742 -45.84213562 0.30891649 -39.5073452 0.25102234 C-37.09821571 0.22890388 -34.6890881 0.20657843 -32.27996254 0.18403625 C-10.15370013 -0.02276149 -10.15370013 -0.02276149 0 0 Z " fill="#676767" transform="translate(293.53392028808594,15.00115966796875)"/>
<path d="M0 0 C3.71304094 1.23768031 3.94843182 2.17521257 5.78515625 5.53125 C6.31101318 6.4790332 6.83687012 7.42681641 7.37866211 8.40332031 C7.93432861 9.42522461 8.48999512 10.44712891 9.0625 11.5 C10.23049823 13.61007993 11.39978049 15.71944959 12.5703125 17.828125 C13.14942383 18.87548828 13.72853516 19.92285156 14.32519531 21.00195312 C16.62865315 25.12534412 19.02168125 29.19174342 21.4375 33.25 C24.57014412 38.5327519 27.60091007 43.85028175 30.5078125 49.26171875 C32.88995068 53.63312938 35.387359 57.93808893 37.875 62.25 C40.08555986 66.1190163 42.21091789 70.0333849 44.33984375 73.94775391 C47.37906082 79.53544387 50.43546946 85.11365931 53.5 90.6875 C53.84161163 91.30930145 54.18322327 91.93110291 54.53518677 92.57174683 C60.0968243 102.68321426 65.82260197 112.68193278 71.74609375 122.58666992 C72.29265625 123.50810791 72.83921875 124.4295459 73.40234375 125.37890625 C73.88179443 126.1788501 74.36124512 126.97879395 74.85522461 127.80297852 C75.95701703 129.91750827 76.65112582 131.64540855 77 134 C76.00390625 136.359375 76.00390625 136.359375 74.5625 138.75 C73.85287109 139.94882812 73.85287109 139.94882812 73.12890625 141.171875 C72.75636719 141.77515625 72.38382813 142.3784375 72 143 C71.34 141.68 70.68 140.36 70 139 C70.66 139 71.32 139 72 139 C71.67 137.02 71.34 135.04 71 133 C23.48 133 -24.04 133 -73 133 C-71.87580086 126.25480517 -71.87580086 126.25480517 -70.06640625 123.328125 C-69.67018066 122.67360352 -69.27395508 122.01908203 -68.86572266 121.34472656 C-68.43565918 120.6534668 -68.0055957 119.96220703 -67.5625 119.25 C-66.64257285 117.73035047 -65.72466406 116.20947761 -64.80859375 114.6875 C-64.33921387 113.91019531 -63.86983398 113.13289063 -63.38623047 112.33203125 C-61.21711518 108.68296657 -59.16912923 104.97009207 -57.125 101.25 C-53.55708973 94.77890718 -49.92773053 88.34681038 -46.25 81.9375 C-39.93761731 70.93010939 -33.74370988 59.8575743 -27.55419922 48.78076172 C-21.51052484 37.96746433 -15.4097456 27.18866019 -9.24755859 16.44238281 C-6.12129684 10.98536718 -3.03961286 5.50576098 0 0 Z " fill="#353535" transform="translate(324,217)"/>
<path d="M0 0 C0.433125 0.9590625 0.433125 0.9590625 0.875 1.9375 C1.82823451 4.15206079 1.82823451 4.15206079 4 5 C5.90023369 5.10560986 7.80417498 5.14663411 9.70730591 5.15821838 C11.52888718 5.17290161 11.52888718 5.17290161 13.38726807 5.18788147 C14.74011191 5.19378602 16.09295617 5.19959644 17.44580078 5.20532227 C18.86479988 5.21489839 20.2837961 5.22490831 21.70278931 5.23532104 C25.56203361 5.26240501 29.42129018 5.28339563 33.28057718 5.30332303 C37.31116897 5.32516108 41.34172277 5.35256042 45.37228394 5.37937927 C53.00787912 5.42933571 60.64349535 5.47426357 68.27913177 5.51740164 C76.97069441 5.56674883 85.66221894 5.62167628 94.35374475 5.67708123 C112.23579447 5.79094656 130.11788013 5.89777567 148 6 C147.23706158 9.28333494 146.12396073 11.89284467 144.515625 14.8671875 C143.9987915 15.82471924 143.48195801 16.78225098 142.94946289 17.76879883 C142.10822876 19.30636841 142.10822876 19.30636841 141.25 20.875 C140.67306396 21.93549561 140.09612793 22.99599121 139.50170898 24.08862305 C135.00124353 32.30381646 130.31590085 40.39859026 125.49121094 48.42724609 C122.32304596 53.70514408 119.30304838 59.03908704 116.39233398 64.46362305 C114.99047218 67.01735657 113.51408723 69.5114357 112 72 C109.40809332 76.27060272 107.00459516 80.61975556 104.6328125 85.015625 C102.19788785 89.46606144 99.65994601 93.85609358 97.125 98.25 C93.73641838 104.18063543 90.51804099 110.20707665 87.25634766 116.20800781 C85.4510113 119.51885262 83.63282769 122.82237773 81.8125 126.125 C81.19697266 127.259375 80.58144531 128.39375 79.94726562 129.5625 C79.35236328 130.63757813 78.75746094 131.71265625 78.14453125 132.8203125 C77.61190674 133.79242676 77.07928223 134.76454102 76.53051758 135.76611328 C75 138 75 138 72 139 C71.65855957 138.36199463 71.31711914 137.72398926 70.96533203 137.06665039 C62.90439089 122.02901195 54.57741004 107.22330085 45.75 92.625 C43.8135845 89.40946088 41.97029234 86.15827389 40.1796875 82.859375 C39.65439453 81.89273926 39.12910156 80.92610352 38.58789062 79.93017578 C37.12866769 77.23743384 35.66973808 74.54453327 34.2109375 71.8515625 C25.61033551 55.98545373 16.72868843 40.29604918 7.5625 24.75 C7.15265869 24.05116699 6.74281738 23.35233398 6.32055664 22.63232422 C4.65251233 19.7890904 2.97504547 16.95986296 1.234375 14.16015625 C-2.02812529 8.7734456 -2.02812529 8.7734456 -1.875 4.5625 C-1 2 -1 2 0 0 Z " fill="#363636" transform="translate(101,144)"/>
<path d="M0 0 C1.78260775 2.67391162 3.34817464 5.35609712 4.90625 8.1640625 C5.47980225 9.19450684 6.05335449 10.22495117 6.64428711 11.28662109 C7.25667236 12.38828613 7.86905762 13.48995117 8.5 14.625 C12.5687822 21.92242424 16.65557095 29.20034528 20.9375 36.375 C25.58769648 44.17366563 29.9611815 52.12069664 34.34466553 60.07122803 C39.07937838 68.64891811 43.98015249 77.10024504 49.06494141 85.47436523 C52.03844784 90.37529548 54.88581799 95.3146584 57.58203125 100.375 C59.31044191 103.57470238 61.12249233 106.72401644 62.9375 109.875 C65.67255735 114.64094931 68.37052445 119.42488864 71 124.25 C71.5775 125.30703125 72.155 126.3640625 72.75 127.453125 C74 130 74 130 74 132 C74.66 132.33 75.32 132.66 76 133 C26.5 133 -23 133 -74 133 C-71.7509193 126.25275789 -71.7509193 126.25275789 -70.046875 123.30078125 C-69.49277954 122.33011719 -69.49277954 122.33011719 -68.92749023 121.33984375 C-68.53891846 120.67082031 -68.15034668 120.00179687 -67.75 119.3125 C-66.94343027 117.9026755 -66.13744348 116.49251733 -65.33203125 115.08203125 C-64.93709473 114.39318848 -64.5421582 113.7043457 -64.13525391 112.99462891 C-61.69074935 108.69966068 -59.34889342 104.34775566 -57 100 C-56.34 100 -55.68 100 -55 100 C-54.83806152 98.92455933 -54.83806152 98.92455933 -54.67285156 97.82739258 C-53.93855763 94.74181273 -52.80831743 92.5106217 -51.234375 89.76171875 C-50.39326172 88.28348633 -50.39326172 88.28348633 -49.53515625 86.77539062 C-48.94605469 85.75638672 -48.35695312 84.73738281 -47.75 83.6875 C-46.88955078 82.17639648 -46.88955078 82.17639648 -46.01171875 80.63476562 C-43.12372412 75.58570895 -40.1604071 70.60273383 -37.05029297 65.68774414 C-35.66725781 63.46530759 -34.41699689 61.1854141 -33.1875 58.875 C-30.82051042 54.4774147 -28.3698255 50.1380566 -25.875 45.8125 C-23.48026848 41.64951385 -21.16544179 37.47672804 -19.07421875 33.15234375 C-16.51924713 28.0331097 -13.7286773 23.02812447 -11 18 C-10.34 18 -9.68 18 -9 18 C-8.61714844 16.71222656 -8.61714844 16.71222656 -8.2265625 15.3984375 C-6.94321828 11.84267486 -5.31784652 8.86307753 -3.375 5.625 C-2.42753906 4.03558594 -2.42753906 4.03558594 -1.4609375 2.4140625 C-0.97882813 1.61742187 -0.49671875 0.82078125 0 0 Z " fill="#383838" transform="translate(250,350)"/>
<path d="M0 0 C1.26487244 -0.00137466 2.52974487 -0.00274933 3.83294678 -0.00416565 C5.24246239 -0.00062627 6.65197777 0.00300855 8.06149292 0.00672913 C9.53960162 0.00701107 11.01771047 0.00685312 12.49581909 0.00628662 C16.51624579 0.00599894 20.53664284 0.011891 24.55706263 0.01886058 C28.75579333 0.02509892 32.95452466 0.0256983 37.15325928 0.02688599 C45.10762551 0.02999788 53.06197804 0.03820937 61.01633823 0.04823548 C70.070624 0.059401 79.12491042 0.06490817 88.17920136 0.06993091 C106.80777898 0.08039209 125.43634383 0.0979888 144.06491089 0.12025452 C142.96352137 2.33706099 141.86059816 4.55308248 140.75680542 6.76869202 C140.44866409 7.38929504 140.14052277 8.00989807 139.82304382 8.64930725 C137.0352391 14.24005909 134.03869804 19.69578775 130.93991089 25.12025452 C130.39004517 26.08938782 129.84017944 27.05852112 129.27365112 28.05702209 C124.77009869 35.96300296 120.12499663 43.78170413 115.46456909 51.59584045 C112.15695739 57.1741599 109.11432278 62.7732546 106.30709839 68.62025452 C104.63535562 71.98476826 102.69425844 75.14898666 100.73287964 78.35072327 C97.52292142 83.68060706 94.52758391 89.13572305 91.49264526 94.56654358 C89.84695367 97.51010276 88.19821831 100.45194709 86.54928589 103.39369202 C78.78605648 117.24523272 78.78605648 117.24523272 71.06491089 131.12025452 C66.93605186 129.74396817 66.06392547 127.01625305 64.12741089 123.37025452 C63.32246414 121.897028 62.51641933 120.42440107 61.70944214 118.95228577 C61.28098999 118.16547424 60.85253784 117.37866272 60.41110229 116.56800842 C58.10048853 112.36666392 55.70358388 108.215047 53.31491089 104.05775452 C48.36999157 95.42527443 43.4721201 86.76685671 38.58517456 78.10145569 C35.28239617 72.25244048 31.93153572 66.43726673 28.52584839 60.64759827 C27.05303739 58.09971399 25.64646886 55.52447003 24.25241089 52.93275452 C21.8177925 48.4267985 19.24571297 44.02043469 16.62741089 39.62025452 C9.49336499 27.61407409 2.8092585 15.34793244 -3.93508911 3.12025452 C-6.47240275 4.38891134 -6.72155757 5.61734572 -7.93508911 8.12025452 C-8.59508911 8.78025452 -9.25508911 9.44025452 -9.93508911 10.12025452 C-10.26508911 11.11025452 -10.59508911 12.10025452 -10.93508911 13.12025452 C-12.99758911 14.30775452 -12.99758911 14.30775452 -14.93508911 15.12025452 C-9.56700383 -0.00798581 -9.56700383 -0.00798581 0 0 Z " fill="#383838" transform="translate(179.93508911132813,16.879745483398438)"/>
<path d="M0 0 C25.08 0 50.16 0 76 0 C76 0.33 76 0.66 76 1 C51.91 1.33 27.82 1.66 3 2 C2.67 3.32 2.34 4.64 2 6 C1.34 4.02 0.68 2.04 0 0 Z " fill="#6D6D6D" transform="translate(100,350)"/>
<path d="M0 0 C3 1 3 1 4.5 3.5 C5.24011838 8.68082865 2.80203348 11.76874139 0 16 C-0.66 14.68 -1.32 13.36 -2 12 C-1.34 12 -0.68 12 0 12 C-0.165 11.113125 -0.33 10.22625 -0.5 9.3125 C-0.93157374 6.45332396 -1.16459096 3.88034176 -1 1 C-0.67 0.67 -0.34 0.34 0 0 Z " fill="#3F3F3F" transform="translate(396,344)"/>
<path d="M0 0 C8.91 0 17.82 0 27 0 C27 0.33 27 0.66 27 1 C19.08 1.33 11.16 1.66 3 2 C2.67 3.32 2.34 4.64 2 6 C1.34 4.02 0.68 2.04 0 0 Z " fill="#6D6D6D" transform="translate(100,350)"/>
<path d="M0 0 C0.28875 0.61875 0.5775 1.2375 0.875 1.875 C1.93720042 4.13325765 1.93720042 4.13325765 4 6 C3.34 6 2.68 6 2 6 C2 6.99 2 7.98 2 9 C0.68 8.67 -0.64 8.34 -2 8 C-1.125 2.25 -1.125 2.25 0 0 Z " fill="#5B5B5B" transform="translate(101,144)"/>
<path d="M0 0 C0.99 0.33 1.98 0.66 3 1 C4.1875 4.0625 4.1875 4.0625 5 7 C3.35 6.67 1.7 6.34 0 6 C-0.38218767 4.34385343 -0.71395102 2.67542976 -1 1 C-0.67 0.67 -0.34 0.34 0 0 Z " fill="#646464" transform="translate(396,344)"/>
<path d="M0 0 C0.33 0 0.66 0 1 0 C1.25 2.25 1.25 2.25 1 5 C-1 7.3125 -1 7.3125 -3 9 C-3.33 8.34 -3.66 7.68 -4 7 C-3.22265625 5.2734375 -3.22265625 5.2734375 -2.0625 3.375 C-1.381875 2.26125 -0.70125 1.1475 0 0 Z " fill="#717171" transform="translate(136,82)"/>
<path d="M0 0 C0.33 0.66 0.66 1.32 1 2 C0.34 2.66 -0.32 3.32 -1 4 C-1.33 4.99 -1.66 5.98 -2 7 C-4.0625 8.1875 -4.0625 8.1875 -6 9 C-4.68775452 5.06326356 -3.08089673 2.77280706 0 0 Z " fill="#6D6D6D" transform="translate(171,23)"/>
<path d="M0 0 C0.66 0.99 1.32 1.98 2 3 C1.01 4.32 0.02 5.64 -1 7 C-1 6.01 -1 5.02 -1 4 C-1.66 4 -2.32 4 -3 4 C-2.67 3.01 -2.34 2.02 -2 1 C-1.34 0.67 -0.68 0.34 0 0 Z " fill="#3C3C3C" transform="translate(351,433)"/>
<path d="M0 0 C2.97 0 5.94 0 9 0 C9 0.33 9 0.66 9 1 C7.02 1.33 5.04 1.66 3 2 C2.67 3.32 2.34 4.64 2 6 C1.34 4.02 0.68 2.04 0 0 Z " fill="#8A8A8A" transform="translate(100,350)"/>
<path d="M0 0 C0.33 0.66 0.66 1.32 1 2 C1.66 2.33 2.32 2.66 3 3 C0.69 4.65 -1.62 6.3 -4 8 C-2.87548273 5.0280615 -1.77706209 2.66559313 0 0 Z " fill="#858585" transform="translate(256,338)"/>
<path d="M0 0 C0.93065133 2.60582371 1.14917407 3.64198224 0.0625 6.25 C-0.4634375 7.11625 -0.4634375 7.11625 -1 8 C-1.66 8 -2.32 8 -3 8 C-2.45276317 4.62537285 -1.9451 2.91765 0 0 Z " fill="#7C7C7C" transform="translate(154,50)"/>
</svg>
