<?xml version="1.0" encoding="UTF-8"?>
<svg xmlns="http://www.w3.org/2000/svg" xmlns:xlink="http://www.w3.org/1999/xlink" width="500px" height="500px" viewBox="0 0 500 500" version="1.1">
<g id="surface1">
<path style=" stroke:none;fill-rule:nonzero;fill:rgb(86.666667%,28.235295%,7.843138%);fill-opacity:1;" d="M 499.289062 249.382812 C 499.289062 387.101562 387.640625 498.757812 249.910156 498.757812 C 112.175781 498.757812 0.527344 387.101562 0.527344 249.382812 C 0.527344 111.652344 112.179688 0 249.910156 0 C 387.640625 0 499.289062 111.652344 499.289062 249.382812 Z M 499.289062 249.382812 "/>
<path style=" stroke:none;fill-rule:nonzero;fill:rgb(100%,100%,100%);fill-opacity:1;" d="M 80.335938 216.078125 C 61.941406 216.078125 47.039062 230.984375 47.039062 249.382812 C 47.039062 267.765625 61.941406 282.671875 80.335938 282.671875 C 98.726562 282.671875 113.632812 267.765625 113.632812 249.382812 C 113.632812 230.984375 98.726562 216.078125 80.335938 216.078125 Z M 318.0625 367.40625 C 302.140625 376.601562 296.675781 396.953125 305.875 412.871094 C 315.066406 428.796875 335.414062 434.257812 351.34375 425.058594 C 367.265625 415.867188 372.726562 395.515625 363.53125 379.589844 C 354.339844 363.675781 333.976562 358.214844 318.0625 367.40625 Z M 152.660156 249.382812 C 152.660156 216.476562 169.003906 187.40625 194.011719 169.804688 L 169.667969 129.039062 C 140.539062 148.507812 118.863281 178.265625 109.855469 213.113281 C 120.367188 221.6875 127.09375 234.742188 127.09375 249.378906 C 127.09375 264.007812 120.367188 277.0625 109.855469 285.640625 C 118.851562 320.496094 140.527344 350.253906 169.667969 369.726562 L 194.007812 328.945312 C 169.003906 311.351562 152.660156 282.285156 152.660156 249.382812 Z M 249.910156 152.121094 C 300.71875 152.121094 342.402344 191.074219 346.777344 240.753906 L 394.21875 240.054688 C 391.886719 203.378906 375.863281 170.453125 351.246094 146.242188 C 338.585938 151.023438 323.960938 150.292969 311.324219 143.007812 C 298.660156 135.699219 290.722656 123.375 288.550781 109.996094 C 275.964844 106.511719 262.96875 104.746094 249.910156 104.742188 C 227.671875 104.71875 205.734375 109.84375 185.808594 119.707031 L 208.945312 161.167969 C 221.773438 155.195312 235.757812 152.109375 249.910156 152.121094 Z M 249.910156 346.632812 C 235.757812 346.644531 221.777344 343.558594 208.945312 337.585938 L 185.8125 379.039062 C 205.734375 388.917969 227.675781 394.046875 249.914062 394.023438 C 262.972656 394.019531 275.96875 392.25 288.554688 388.757812 C 290.722656 375.375 298.664062 363.0625 311.324219 355.742188 C 323.972656 348.445312 338.585938 347.726562 351.246094 352.507812 C 375.863281 328.296875 391.882812 295.375 394.21875 258.695312 L 346.765625 257.996094 C 342.398438 307.691406 300.71875 346.628906 249.910156 346.628906 Z M 318.050781 131.335938 C 333.976562 140.53125 354.332031 135.085938 363.519531 119.160156 C 372.71875 103.234375 367.269531 82.882812 351.34375 73.683594 C 335.417969 64.496094 315.066406 69.953125 305.863281 85.878906 C 296.679688 101.796875 302.136719 122.148438 318.050781 131.335938 Z M 318.050781 131.335938 "/>
</g>
</svg>
